<svg xmlns="http://www.w3.org/2000/svg" width="16" height="16" viewBox="0 0 16 16" fill="none">
<path d="M8 15.9999C12.4183 15.9999 16 12.4182 16 7.99995C16 3.5817 12.4183 0 8 0C3.58172 0 0 3.5817 0 7.99995C0 12.4182 3.58172 15.9999 8 15.9999Z" fill="#F0F0F0"/>
<path d="M7.65186 8.00017H15.9997C15.9997 7.27811 15.9034 6.57861 15.7241 5.91321H7.65186V8.00017Z" fill="#D80027"/>
<path d="M7.65186 3.82609H14.8255C14.3358 3.02697 13.7096 2.32063 12.9795 1.73914H7.65186V3.82609Z" fill="#D80027"/>
<path d="M7.99892 16.0001C9.8817 16.0001 11.6122 15.3494 12.9788 14.261H3.01904C4.38561 15.3494 6.11614 16.0001 7.99892 16.0001Z" fill="#D80027"/>
<path d="M1.1735 12.1739H14.8251C15.2183 11.5323 15.5232 10.8311 15.7237 10.0869H0.274902C0.475434 10.8311 0.78034 11.5323 1.1735 12.1739Z" fill="#D80027"/>
<path d="M3.70575 1.24931H4.43478L3.75666 1.74196L4.01569 2.53911L3.33759 2.04646L2.6595 2.53911L2.88325 1.85046C2.28619 2.3478 1.76287 2.93048 1.33162 3.57973H1.56522L1.13356 3.89332C1.06631 4.00551 1.00181 4.11948 0.94 4.23513L1.14612 4.86953L0.761563 4.59013C0.665969 4.79266 0.578531 4.99975 0.499938 5.21116L0.727031 5.91015H1.56522L0.887094 6.40281L1.14612 7.19996L0.468031 6.70731L0.0618437 7.00243C0.0211875 7.32924 0 7.66211 0 7.99995H8C8 3.58173 8 3.06086 8 0C6.41963 0 4.94641 0.458435 3.70575 1.24931ZM4.01569 7.19996L3.33759 6.70731L2.6595 7.19996L2.91853 6.40281L2.24041 5.91015H3.07859L3.33759 5.113L3.59659 5.91015H4.43478L3.75666 6.40281L4.01569 7.19996ZM3.75666 4.07238L4.01569 4.86953L3.33759 4.37688L2.6595 4.86953L2.91853 4.07238L2.24041 3.57973H3.07859L3.33759 2.78258L3.59659 3.57973H4.43478L3.75666 4.07238ZM6.88525 7.19996L6.20716 6.70731L5.52906 7.19996L5.78809 6.40281L5.10997 5.91015H5.94816L6.20716 5.113L6.46616 5.91015H7.30434L6.62622 6.40281L6.88525 7.19996ZM6.62622 4.07238L6.88525 4.86953L6.20716 4.37688L5.52906 4.86953L5.78809 4.07238L5.10997 3.57973H5.94816L6.20716 2.78258L6.46616 3.57973H7.30434L6.62622 4.07238ZM6.62622 1.74196L6.88525 2.53911L6.20716 2.04646L5.52906 2.53911L5.78809 1.74196L5.10997 1.24931H5.94816L6.20716 0.452154L6.46616 1.24931H7.30434L6.62622 1.74196Z" fill="#0052B4"/>
</svg>