<svg xmlns="http://www.w3.org/2000/svg" width="16" height="16" viewBox="0 0 16 16" fill="none">
<path d="M8 16C12.4183 16 16 12.4183 16 8C16 3.58172 12.4183 0 8 0C3.58172 0 0 3.58172 0 8C0 12.4183 3.58172 16 8 16Z" fill="#F0F0F0"/>
<path d="M15.5024 10.7826C15.824 9.91594 16 8.97856 16 8C16 7.02144 15.824 6.08406 15.5024 5.21741H0.497594C0.176031 6.08406 0 7.02144 0 8C0 8.97856 0.176031 9.91594 0.497594 10.7826L8 11.4783L15.5024 10.7826Z" fill="#0052B4"/>
<path d="M8.00021 16C11.4399 16 14.3723 13.829 15.5026 10.7826H0.497803C1.62815 13.829 4.56049 16 8.00021 16Z" fill="#D80027"/>
</svg>